<svg stroke-miterlimit="10" style="fill-rule:nonzero;clip-rule:evenodd;stroke-linecap:round;stroke-linejoin:round" viewBox="0 0 256 64" xml:space="preserve"
  xmlns="http://www.w3.org/2000/svg">
  <defs>
    <clipPath id="a">
      <path d="M-.012.2h256v44.983h-256z"/>
    </clipPath>
  </defs>
  <g fill="currentColor">
    <path clip-path="url(#a)" d="m46.026 19.246 9.684-9.925h5.011L49.474 20.584 60.786 34.2h-5.028L46.8 23.13l-.773.773V34.2h-3.754V9.32h3.754v9.926ZM70.892 9.32v14.986c0 2.138.349 3.7 1.047 4.689 1.042 1.429 2.508 2.143 4.399 2.143 1.901 0 3.373-.714 4.415-2.143.698-.956 1.047-2.52 1.047-4.689V9.321h3.755v16.016c0 2.621-.817 4.78-2.45 6.478-1.836 1.89-4.092 2.836-6.767 2.836-2.675 0-4.925-.946-6.751-2.836-1.633-1.698-2.45-3.857-2.45-6.478V9.321h3.755ZM102.944 23.597l7.702 10.602h-4.592l-7.106-10.183h-.677V34.2h-3.754V9.32h4.399c3.287 0 5.661.618 7.122 1.854 1.611 1.375 2.417 3.19 2.417 5.446 0 1.762-.505 3.276-1.515 4.544-1.01 1.267-2.342 2.078-3.996 2.433Zm-4.673-2.852h1.192c3.556 0 5.334-1.359 5.334-4.077 0-2.546-1.73-3.819-5.188-3.819H98.27v7.896ZM131.451 13.027l-3.045 1.804c-.57-.988-1.112-1.632-1.628-1.933-.537-.344-1.23-.516-2.078-.516-1.042 0-1.907.296-2.594.886-.688.58-1.032 1.31-1.032 2.192 0 1.214.903 2.191 2.707 2.932l2.482 1.016c2.019.816 3.496 1.812 4.431 2.989.934 1.176 1.402 2.618 1.402 4.326 0 2.288-.763 4.179-2.288 5.672-1.536 1.504-3.443 2.256-5.721 2.256-2.159 0-3.942-.64-5.349-1.918-1.386-1.278-2.251-3.077-2.594-5.398l3.802-.838c.172 1.461.473 2.471.903 3.03.773 1.074 1.901 1.611 3.383 1.611 1.171 0 2.144-.392 2.917-1.176.773-.784 1.16-1.778 1.16-2.981 0-.484-.067-.927-.201-1.33a3.382 3.382 0 0 0-.629-1.111 5.01 5.01 0 0 0-1.103-.951 10.69 10.69 0 0 0-1.612-.846l-2.401-.999c-3.405-1.44-5.108-3.545-5.108-6.316 0-1.87.715-3.433 2.144-4.69 1.428-1.267 3.206-1.9 5.333-1.9 2.868 0 5.108 1.396 6.719 4.189ZM153.981 28.157H143.33l-2.772 6.043h-4.044l12.31-26.442L160.7 34.2h-4.109l-2.61-6.043Zm-1.531-3.529-3.69-8.46-3.867 8.46h7.557ZM184.035 10.658v4.447c-2.17-1.815-4.415-2.723-6.736-2.723-2.556 0-4.71.919-6.461 2.755-1.762 1.827-2.643 4.061-2.643 6.704 0 2.61.881 4.812 2.643 6.606 1.762 1.794 3.921 2.691 6.478 2.691 1.321 0 2.443-.215 3.367-.645a9.693 9.693 0 0 0 1.603-.87 18.959 18.959 0 0 0 1.749-1.32v4.527c-2.149 1.214-4.405 1.82-6.768 1.82-3.556 0-6.59-1.24-9.104-3.721-2.503-2.503-3.754-5.522-3.754-9.056 0-3.17 1.047-5.994 3.142-8.476 2.578-3.04 5.913-4.56 10.006-4.56 2.235 0 4.394.607 6.478 1.821ZM196.219 19.053h10.732V9.321h3.754V34.2h-3.754V22.581h-10.732v11.617h-3.754V9.322h3.754v9.732Z"/>
    <path d="m44.677 41.239 1.652 10.874-1.913.29-1.652-10.874-2.913.443-.273-1.797L47.308 39l.274 1.797-2.905.442ZM58.422 44.257l-5.094-.672-.403 3.053 4.946.653-.238 1.802-4.946-.652-.56 4.246 5.094.672-.237 1.802-7.012-.925 1.676-12.706 7.012.925-.238 1.802ZM67.273 38.962l-1.086 1.465c-.467-.355-.854-.553-1.159-.593-.323-.056-.687.001-1.09.17-.495.209-.846.522-1.055.94-.21.412-.228.828-.052 1.246.243.576.866.86 1.871.852l1.381-.013c1.122-.016 2.023.162 2.701.534.68.372 1.189.964 1.53 1.775.457 1.086.472 2.136.046 3.15-.43 1.021-1.184 1.759-2.266 2.214-1.025.43-2 .483-2.923.157-.913-.33-1.683-1.012-2.31-2.045l1.639-1.157c.373.66.717 1.079 1.033 1.258.582.356 1.225.386 1.929.09.556-.234.939-.615 1.15-1.142.21-.526.196-1.075-.045-1.647a2.154 2.154 0 0 0-.36-.59 1.738 1.738 0 0 0-.521-.403 2.587 2.587 0 0 0-.714-.231 5.486 5.486 0 0 0-.934-.08l-1.34.005c-1.904-.004-3.133-.664-3.687-1.98-.373-.887-.346-1.772.082-2.654.425-.888 1.143-1.544 2.153-1.968 1.362-.573 2.704-.357 4.027.647ZM79.594 40.769l-.874 10.963-1.928-.153.874-10.964-2.938-.234.145-1.812 7.794.62-.144 1.813-2.93-.233ZM88.91 39.306v12.816h-1.933V39.306h1.934ZM103.348 38.207l2.77 13.404-11.132-7.684 1.802 8.722-1.894.392-2.75-13.316 11.126 7.66-1.816-8.787 1.894-.391ZM115.687 44.899l4.119-3.329.266.33c.605.749 1.053 1.483 1.342 2.202a5.44 5.44 0 0 1 .339 2.203c-.084 1.789-.841 3.26-2.27 4.416-1.394 1.126-2.996 1.588-4.804 1.384-1.811-.208-3.289-1.02-4.433-2.437-1.169-1.446-1.654-3.081-1.457-4.906.195-1.829 1.017-3.33 2.468-4.501a6.498 6.498 0 0 1 2.568-1.286c.903-.203 1.955-.2 3.157.011l-.243 1.893c-1.697-.429-3.134-.168-4.309.781-1.054.853-1.645 1.93-1.772 3.236-.137 1.291.229 2.475 1.098 3.552.898 1.11 2.035 1.703 3.412 1.779 1.284.065 2.36-.253 3.23-.956.74-.598 1.204-1.385 1.39-2.36.183-.98.025-1.85-.473-2.607l-2.486 2.009-1.142-1.414ZM140.525 42.659l-1.784.379c-.115-.576-.274-.98-.476-1.212-.206-.256-.515-.454-.93-.594-.508-.172-.979-.17-1.412.005-.431.17-.719.47-.864.9-.2.592.079 1.218.838 1.877l1.044.904c.851.732 1.408 1.461 1.67 2.19.262.728.253 1.508-.029 2.342-.377 1.117-1.06 1.914-2.051 2.391-.997.481-2.052.534-3.164.159-1.053-.356-1.818-.962-2.295-1.817-.465-.853-.591-1.873-.377-3.063l1.995.218c-.157.742-.177 1.284-.059 1.627.2.652.662 1.1 1.386 1.344.571.193 1.111.162 1.617-.093.507-.255.86-.677 1.058-1.264.079-.236.12-.463.12-.682a1.738 1.738 0 0 0-.123-.646 2.6 2.6 0 0 0-.382-.646 5.506 5.506 0 0 0-.647-.679l-1.007-.883c-1.425-1.263-1.91-2.572-1.453-3.924.308-.913.914-1.558 1.819-1.936.906-.383 1.878-.4 2.916-.05 1.4.473 2.263 1.524 2.59 3.153ZM148.146 45.315l.858 8.352-2.032-.905-.592-5.871-4.769 3.482-2.032-.906 6.8-4.94 2.254-5.056 1.767.787-2.254 5.057ZM161.893 41.215l-1.569.93c-.293-.51-.573-.842-.838-.997-.277-.177-.634-.265-1.071-.265-.537 0-.982.152-1.336.456a1.414 1.414 0 0 0-.532 1.13c0 .625.465 1.128 1.395 1.51l1.278.523c1.041.42 1.801.934 2.283 1.54.481.606.722 1.349.722 2.229 0 1.178-.393 2.152-1.179 2.922-.791.774-1.773 1.162-2.946 1.162-1.113 0-2.031-.33-2.756-.988-.714-.659-1.16-1.586-1.337-2.781l1.959-.432c.089.753.244 1.273.465 1.56.399.554.98.831 1.743.831.604 0 1.104-.202 1.503-.606.398-.404.597-.916.597-1.536a2.16 2.16 0 0 0-.103-.684 1.747 1.747 0 0 0-.324-.573 2.586 2.586 0 0 0-.569-.49 5.449 5.449 0 0 0-.83-.436l-1.237-.514c-1.754-.742-2.631-1.827-2.631-3.254 0-.963.368-1.768 1.104-2.416.736-.653 1.652-.98 2.748-.98 1.477 0 2.631.72 3.461 2.159ZM168.792 41.023l2.44 10.724-1.886.43-2.44-10.725-2.873.653-.404-1.772 7.625-1.735.403 1.773-2.865.651ZM183.072 41.124h-5.138v3.08h4.988v1.817h-4.988v4.283h5.138v1.818H176V39.306h7.072v1.818ZM184.769 49.166l7.451-11.901.543 10.876 7.821-7.67-2.669 13.734-1.853-.71 1.615-7.667-6.523 6.416-.458-9.1-4.059 6.738-1.868-.716ZM214.226 45.944l-1.815.172c-.049-.585-.16-1.005-.334-1.258-.175-.278-.46-.51-.856-.697-.485-.229-.953-.28-1.403-.156-.448.12-.768.384-.962.795-.266.565-.06 1.219.618 1.96l.933 1.019c.762.823 1.232 1.612 1.409 2.365.177.754.079 1.528-.296 2.324-.503 1.067-1.273 1.78-2.312 2.141-1.046.364-2.1.296-3.161-.204-1.006-.474-1.697-1.164-2.072-2.069-.365-.9-.373-1.928-.024-3.085l1.956.445c-.24.718-.322 1.255-.244 1.61.124.67.532 1.168 1.223 1.493.545.258 1.085.288 1.617.093.533-.196.931-.574 1.195-1.135.106-.225.172-.447.198-.664.026-.217.01-.436-.048-.656a2.622 2.622 0 0 0-.306-.685 5.55 5.55 0 0 0-.565-.748l-.9-.993c-1.271-1.418-1.602-2.773-.993-4.065.41-.87 1.086-1.442 2.028-1.715.944-.277 1.911-.182 2.903.285 1.336.63 2.074 1.773 2.211 3.428Z"/>
  </g>
</svg>